<svg width="43" height="41" viewBox="0 0 43 41" fill="none" xmlns="http://www.w3.org/2000/svg">
<path d="M31.75 1H11.25C5.58908 1 1 5.30964 1 10.6259V29.8776C1 35.1938 5.58908 39.5034 11.25 39.5034H31.75C37.4109 39.5034 42 35.1938 42 29.8776V10.6259C42 5.30964 37.4109 1 31.75 1Z" stroke="white" stroke-width="2" stroke-linecap="round" stroke-linejoin="round"/>
<path d="M29.6999 19.0384C29.9529 20.6406 29.6614 22.277 28.8671 23.7147C28.0727 25.1524 26.8158 26.3183 25.2752 27.0465C23.7346 27.7747 21.9887 28.0282 20.2858 27.7708C18.583 27.5135 17.0099 26.7585 15.7903 25.6132C14.5707 24.4678 13.7667 22.9905 13.4927 21.3914C13.2187 19.7922 13.4886 18.1526 14.264 16.7058C15.0395 15.259 16.2809 14.0787 17.8119 13.3327C19.3428 12.5867 21.0853 12.313 22.7914 12.5506C24.5317 12.7929 26.1428 13.5545 27.3868 14.7228C28.6309 15.891 29.4418 17.4041 29.6999 19.0384Z" stroke="white" stroke-width="2" stroke-linecap="round" stroke-linejoin="round"/>
<path d="M32.775 9.66309H32.7955" stroke="white" stroke-width="2" stroke-linecap="round" stroke-linejoin="round"/>
</svg>
