<svg width="48" height="33" viewBox="0 0 48 33" fill="none" xmlns="http://www.w3.org/2000/svg">
<path d="M46.0083 6.50943C45.7648 5.59578 45.2689 4.75865 44.5706 4.08261C43.8723 3.40656 42.9964 2.91555 42.0313 2.65915C38.5053 1.85059 24.4013 1.85059 24.4013 1.85059C24.4013 1.85059 10.2973 1.85059 6.77128 2.73615C5.80623 2.99255 4.93033 3.48357 4.23203 4.15961C3.53374 4.83566 3.03779 5.67278 2.79427 6.58644C2.14896 9.94688 1.8333 13.3558 1.85127 16.7704C1.82827 20.2108 2.14394 23.6457 2.79427 27.0314C3.06274 27.9167 3.5698 28.722 4.26647 29.3695C4.96314 30.017 5.82586 30.4848 6.77128 30.7277C10.2973 31.6133 24.4013 31.6133 24.4013 31.6133C24.4013 31.6133 38.5053 31.6133 42.0313 30.7277C42.9964 30.4713 43.8723 29.9803 44.5706 29.3043C45.2689 28.6282 45.7648 27.7911 46.0083 26.8774C46.6487 23.5423 46.9643 20.1593 46.9513 16.7704C46.9743 13.3301 46.6587 9.89517 46.0083 6.50943V6.50943Z" stroke="white" stroke-width="2" stroke-linecap="round" stroke-linejoin="round"/>
<path d="M19.7886 23.0654L31.5762 16.77L19.7886 10.4746V23.0654Z" stroke="white" stroke-width="2" stroke-linecap="round" stroke-linejoin="round"/>
</svg>
